<svg viewBox="0 0 342 316" fill="none" xmlns="http://www.w3.org/2000/svg">
    <path 
        d="M182.634 311.536C155.111 311.528 127.436 316.489 101.6 307.004C74.8624 297.188 50.7556 280.12 34.11 257.008C17.4966 233.941 12.8684 205.329 8.17814 177.292C3.23929 147.769 -4.97338 116.893 6.01246 89.0482C17.1255 60.8812 42.411 40.8042 68.2541 25.0241C92.906 9.97145 121.16 -0.31075 150.008 1.12301C177.17 2.47293 198.311 23.0178 223.705 32.7499C250.809 43.1368 283.539 40.548 304.706 60.4087C326.823 81.1616 336.708 112.273 340.524 142.361C344.383 172.79 338.041 203.317 326.429 231.707C314.584 260.67 300.523 291.87 273.164 307.058C246.29 321.978 213.371 311.546 182.634 311.536Z"
        fill="currentColor" />
</svg>