<svg viewBox="0 0 393 207" fill="none" xmlns="http://www.w3.org/2000/svg">
    <path fill-rule="evenodd" clip-rule="evenodd"
        d="M0 50.6468L7 65.4188C13 82.3011 26 116.066 39 137.169C52 158.271 66 166.713 79 162.492C92 158.271 105 141.389 118 137.169C131 132.948 144 141.389 157 154.051C170 166.713 183 183.595 197 194.146C210 206.808 223 215.249 236 194.146C249 175.154 262 124.507 275 99.1834C288 73.86 301 73.86 314 73.86C328 73.86 341 73.86 354 86.5217C367 99.1834 380 124.507 386 137.169L393 149.83V0H386C380 0 367 0 354 0C341 0 328 0 314 0C301 0 288 0 275 0C262 0 249 0 236 0C223 0 210 0 197 0C183 0 170 0 157 0C144 0 131 0 118 0C105 0 92 0 79 0C66 0 52 0 39 0C26 0 13 0 7 0H0V50.6468Z"
        fill="#F17272" />
</svg>