<svg viewBox="0 0 1280 334" fill="none" xmlns="http://www.w3.org/2000/svg">
    <path fill-rule="evenodd" clip-rule="evenodd"
        d="M0 81.72L22.799 105.555C42.341 132.795 84.6819 187.275 127.023 221.325C169.364 255.375 214.962 268.995 257.303 262.185C299.644 255.375 341.985 228.135 384.326 221.325C426.667 214.515 469.008 228.135 511.349 248.565C553.69 268.995 596.031 296.235 641.628 313.26C683.969 333.69 726.31 347.31 768.651 313.26C810.992 282.615 853.333 200.895 895.674 160.035C938.015 119.175 980.356 119.175 1022.7 119.175C1068.3 119.175 1110.64 119.175 1152.98 139.605C1195.32 160.035 1237.66 200.895 1257.2 221.325L1280 241.755V0H1257.2C1237.66 0 1195.32 0 1152.98 0C1110.64 0 1068.3 0 1022.7 0C980.356 0 938.015 0 895.674 0C853.333 0 810.992 0 768.651 0C726.31 0 683.969 0 641.628 0C596.031 0 553.69 0 511.349 0C469.008 0 426.667 0 384.326 0C341.985 0 299.644 0 257.303 0C214.962 0 169.364 0 127.023 0C84.6819 0 42.341 0 22.799 0H0V81.72Z"
        fill="#F17272" />
    <path fill-rule="evenodd" clip-rule="evenodd"
        d="M0 293.396L35.827 263.559C71.6539 233.722 143.308 176.535 214.962 161.616C283.359 146.698 355.013 176.535 426.667 206.372C498.321 233.722 569.975 263.559 641.628 243.668C710.025 223.777 781.679 156.644 853.333 151.671C924.987 146.698 996.641 206.372 1068.3 228.749C1136.69 253.614 1208.35 243.668 1244.17 238.695L1280 233.722V0H1244.17C1208.35 0 1136.69 0 1068.3 0C996.641 0 924.987 0 853.333 0C781.679 0 710.025 0 641.628 0C569.975 0 498.321 0 426.667 0C355.013 0 283.359 0 214.962 0C143.308 0 71.6539 0 35.827 0H0V293.396Z"
        fill="#EA5353" />
    <path fill-rule="evenodd" clip-rule="evenodd"
        d="M1280 165.569L1244.17 145.621C1208.35 125.673 1136.69 85.7769 1065.04 97.7458C996.641 109.715 924.987 173.549 853.333 175.544C781.679 179.533 710.025 125.673 638.372 113.704C569.975 101.735 498.321 133.652 426.667 153.601C355.013 173.549 283.359 179.533 211.705 157.59C143.308 133.652 71.654 77.7977 35.827 51.8651L0 23.9377V-3.05176e-05H35.827C71.654 -3.05176e-05 143.308 -3.05176e-05 211.705 -3.05176e-05C283.359 -3.05176e-05 355.013 -3.05176e-05 426.667 -3.05176e-05C498.321 -3.05176e-05 569.975 -3.05176e-05 638.372 -3.05176e-05C710.025 -3.05176e-05 781.679 -3.05176e-05 853.333 -3.05176e-05C924.987 -3.05176e-05 996.641 -3.05176e-05 1065.04 -3.05176e-05C1136.69 -3.05176e-05 1208.35 -3.05176e-05 1244.17 -3.05176e-05H1280V165.569Z"
        fill="#EC3131" />
</svg>