<svg viewBox="0 0 1280 113" fill="none" xmlns="http://www.w3.org/2000/svg">
    <path fill-rule="evenodd" clip-rule="evenodd"
        d="M-4 68.0987L22.1374 52.7039C48.2748 37.3092 103.817 6.51972 156.092 6.51972C211.634 6.51972 263.908 37.3092 316.183 47.5724C371.725 57.8355 424 47.5724 476.275 34.7434C531.817 21.9145 584.092 6.51972 639.634 1.38814C691.908 -2.46054 744.183 1.38814 799.725 16.7829C852 32.1776 904.275 57.8355 959.817 52.7039C1012.09 47.5724 1067.63 11.6513 1119.91 11.6513C1172.18 11.6513 1227.73 47.5724 1253.86 65.5329L1280 82.2105V113H1253.86C1227.73 113 1172.18 113 1119.91 113C1067.63 113 1012.09 113 959.817 113C904.275 113 852 113 799.725 113C744.183 113 691.908 113 639.634 113C584.092 113 531.817 113 476.275 113C424 113 371.725 113 316.183 113C263.908 113 211.634 113 156.092 113C103.817 113 48.2748 113 22.1374 113H-4V68.0987Z"
        fill="currentColor" />
</svg>