<svg viewBox="0 0 393 182" fill="none" xmlns="http://www.w3.org/2000/svg">
    <path fill-rule="evenodd" clip-rule="evenodd"
        d="M0 181.835L11 163.344C22 144.852 44 109.409 66 100.164C87 90.9177 109 109.409 131 127.901C153 144.852 175 163.344 197 151.016C218 138.688 240 97.0816 262 93.9996C284 90.9177 306 127.901 328 141.77C349 157.18 371 151.016 382 147.934L393 144.852V0H382C371 0 349 0 328 0C306 0 284 0 262 0C240 0 218 0 197 0C175 0 153 0 131 0C109 0 87 0 66 0C44 0 22 0 11 0H0V181.835Z"
        fill="#EA5353" />
</svg>