<svg viewBox="0 0 393 207" fill="none" xmlns="http://www.w3.org/2000/svg">
    <path fill-rule="evenodd" clip-rule="evenodd"
        d="M0 50.6468L7 65.4188C13 82.3011 26 116.066 39 137.169C52 158.271 66 166.713 79 162.492C92 158.271 105 141.389 118 137.169C131 132.948 144 141.389 157 154.051C170 166.713 183 183.595 197 194.146C210 206.808 223 215.249 236 194.146C249 175.154 262 124.507 275 99.1834C288 73.86 301 73.86 314 73.86C328 73.86 341 73.86 354 86.5217C367 99.1834 380 124.507 386 137.169L393 149.83V0H386C380 0 367 0 354 0C341 0 328 0 314 0C301 0 288 0 275 0C262 0 249 0 236 0C223 0 210 0 197 0C183 0 170 0 157 0C144 0 131 0 118 0C105 0 92 0 79 0C66 0 52 0 39 0C26 0 13 0 7 0H0V50.6468Z"
        fill="#F17272" />
    <path fill-rule="evenodd" clip-rule="evenodd"
        d="M0 181.835L11 163.344C22 144.852 44 109.409 66 100.164C87 90.9177 109 109.409 131 127.901C153 144.852 175 163.344 197 151.016C218 138.688 240 97.0816 262 93.9996C284 90.9177 306 127.901 328 141.77C349 157.18 371 151.016 382 147.934L393 144.852V0H382C371 0 349 0 328 0C306 0 284 0 262 0C240 0 218 0 197 0C175 0 153 0 131 0C109 0 87 0 66 0C44 0 22 0 11 0H0V181.835Z"
        fill="#EA5353" />
    <path fill-rule="evenodd" clip-rule="evenodd"
        d="M393 102.613L382 90.2503C371 77.8873 349 53.1612 327 60.579C306 67.9968 284 107.559 262 108.795C240 111.268 218 77.8873 196 70.4694C175 63.0516 153 82.8325 131 95.1956C109 107.559 87 111.268 65 97.6682C44 82.8325 22 48.2159 11 32.144L0 14.8357V-1.0203e-05H11C22 -1.0203e-05 44 -1.0203e-05 65 -1.0203e-05C87 -1.0203e-05 109 -1.0203e-05 131 -1.0203e-05C153 -1.0203e-05 175 -1.0203e-05 196 -1.0203e-05C218 -1.0203e-05 240 -1.0203e-05 262 -1.0203e-05C284 -1.0203e-05 306 -1.0203e-05 327 -1.0203e-05C349 -1.0203e-05 371 -1.0203e-05 382 -1.0203e-05H393V102.613Z"
        fill="#EC3131" />
</svg>