<svg viewBox="0 0 393 109" fill="none" xmlns="http://www.w3.org/2000/svg">
    <path fill-rule="evenodd" clip-rule="evenodd"
        d="M393 102.613L382 90.2503C371 77.8873 349 53.1612 327 60.579C306 67.9968 284 107.559 262 108.795C240 111.268 218 77.8873 196 70.4694C175 63.0516 153 82.8325 131 95.1956C109 107.559 87 111.268 65 97.6682C44 82.8325 22 48.2159 11 32.144L0 14.8357V-1.0203e-05H11C22 -1.0203e-05 44 -1.0203e-05 65 -1.0203e-05C87 -1.0203e-05 109 -1.0203e-05 131 -1.0203e-05C153 -1.0203e-05 175 -1.0203e-05 196 -1.0203e-05C218 -1.0203e-05 240 -1.0203e-05 262 -1.0203e-05C284 -1.0203e-05 306 -1.0203e-05 327 -1.0203e-05C349 -1.0203e-05 371 -1.0203e-05 382 -1.0203e-05H393V102.613Z"
        fill="#EC3131" />
</svg>