<svg width="37" height="26" viewBox="0 0 37 26" fill="none" xmlns="http://www.w3.org/2000/svg">
    <path
        d="M34.4394 4.75679C34.255 4.02004 33.8795 3.345 33.3507 2.79985C32.8219 2.25471 32.1586 1.85876 31.4278 1.65201C28.7577 1 18.0772 1 18.0772 1C18.0772 1 7.39675 1 4.72663 1.7141C3.99584 1.92086 3.33255 2.3168 2.80375 2.86195C2.27496 3.4071 1.89939 4.08214 1.71499 4.81889C1.22632 7.52868 0.987282 10.2776 1.00089 13.031C0.983468 15.8052 1.22252 18.5751 1.71499 21.3053C1.91829 22.0192 2.30227 22.6685 2.82983 23.1907C3.35739 23.7128 4.0107 24.09 4.72663 24.2859C7.39675 25 18.0772 25 18.0772 25C18.0772 25 28.7577 25 31.4278 24.2859C32.1586 24.0791 32.8219 23.6832 33.3507 23.1381C33.8795 22.5929 34.255 21.9179 34.4394 21.1811C34.9243 18.4917 35.1634 15.7638 35.1535 13.031C35.171 10.2569 34.9319 7.48698 34.4394 4.75679Z"
        stroke="currentColor" stroke-width="2" stroke-linecap="round" stroke-linejoin="round" />
    <path d="M14.5843 18.1074L23.5106 13.031L14.5843 7.95472V18.1074Z" stroke="currentColor" stroke-width="2"
        stroke-linecap="round" stroke-linejoin="round" />
</svg>