<svg viewBox="0 0 22 22" fill="none" xmlns="http://www.w3.org/2000/svg">
    <path
        d="M1.30002 5.93877L11 10.9692L20.7 5.93877M11 21V10.9591M21 14.9436V6.97467C20.9996 6.62531 20.8967 6.28218 20.7017 5.97971C20.5067 5.67724 20.2264 5.42607 19.8889 5.25138L12.1111 1.26691C11.7733 1.09205 11.3901 1 11 1C10.6099 1 10.2267 1.09205 9.88889 1.26691L2.11111 5.25138C1.77363 5.42607 1.49331 5.67724 1.29829 5.97971C1.10327 6.28218 1.0004 6.62531 1 6.97467V14.9436C1.0004 15.293 1.10327 15.6361 1.29829 15.9386C1.49331 16.2411 1.77363 16.4922 2.11111 16.6669L9.88889 20.6514C10.2267 20.8262 10.6099 20.9183 11 20.9183C11.3901 20.9183 11.7733 20.8262 12.1111 20.6514L19.8889 16.6669C20.2264 16.4922 20.5067 16.2411 20.7017 15.9386C20.8967 15.6361 20.9996 15.293 21 14.9436Z"
        stroke="currentColor" stroke-width="2" stroke-linecap="round" stroke-linejoin="round" />
</svg>