<svg viewBox="0 0 24 24" fill="none" xmlns="http://www.w3.org/2000/svg">
    <path
        d="M12.8278 0.0652548C11.3738 0.451465 10.0708 2.05106 9.26387 4.44613C8.77346 5.90162 8.51402 7.43492 8.44844 9.24203C8.43134 9.77812 8.43134 9.7983 8.48264 9.78387C8.66798 9.72623 10.6267 9.51009 11.5306 9.44377C12.0666 9.40632 13.2726 9.39766 13.5492 9.42937C13.7174 9.44955 13.7402 9.44668 13.7402 9.40344C13.7402 9.30832 13.9141 8.9884 14.0396 8.85008L14.1679 8.71172L14.051 8.99993C13.9854 9.15847 13.917 9.32275 13.8942 9.36595L13.8543 9.4409L13.9911 9.45821C14.0653 9.46686 14.3675 9.49566 14.6611 9.52162C15.1573 9.56773 15.2 9.57638 15.2228 9.63111C15.2342 9.66573 15.2428 9.69453 15.2399 9.69743C15.2371 9.70031 15.0346 9.68587 14.7923 9.66282C14.0767 9.59078 12.9476 9.56195 12.1065 9.59366C10.5526 9.64555 9.14699 9.81845 7.5104 10.1585C6.8689 10.2883 5.41764 10.6485 5.38059 10.6831C5.36917 10.6918 5.39198 10.8531 5.42907 11.0434C5.46612 11.2307 5.51745 11.5477 5.54026 11.7495C5.59727 12.2049 5.6486 13.303 5.62579 13.4874C5.61437 13.5682 5.61722 13.6258 5.63432 13.6258C5.6486 13.6258 5.81681 13.5682 6.01071 13.4961C6.94304 13.1474 8.2232 12.8159 9.36367 12.6315C10.5155 12.4441 11.542 12.3721 12.7423 12.3951C13.7716 12.4153 14.5129 12.4844 15.4253 12.6459L15.6134 12.6804L15.6334 12.8707C15.6933 13.5221 15.6249 15.848 15.4909 17.7329C15.4081 18.9002 15.1601 21.5632 15.0945 21.984L15.0774 22.0878H14.8294C14.6155 22.0878 14.5557 22.0993 14.4045 22.1685C14.1964 22.2636 13.994 22.4654 13.9027 22.67C13.8115 22.8689 13.8172 23.2378 13.9113 23.4395C13.9997 23.624 14.1993 23.8258 14.3817 23.9122C14.5728 24.0073 14.9292 24.0275 15.1316 23.9612C15.5536 23.8171 15.7988 23.4799 15.7988 23.0303C15.7988 22.6729 15.6049 22.353 15.2827 22.1916L15.1173 22.108L15.2143 21.8659C16.2949 19.1595 17.3555 15.9921 17.863 13.9284C17.9314 13.6431 17.9942 13.3952 18.0027 13.375C18.0113 13.352 18.1082 13.3779 18.3078 13.4558C18.4703 13.5163 18.61 13.5682 18.6186 13.5682C18.63 13.5682 18.6471 13.3059 18.6556 12.9831C18.6927 11.8417 18.7811 11.0117 18.8894 10.7436C18.9408 10.6255 18.9208 10.6053 18.6984 10.5246C18.5758 10.4785 18.5587 10.4641 18.5587 10.392C18.5587 10.2911 18.5872 10.2911 18.8124 10.4093L18.9978 10.5044L19.1916 10.2076C19.5395 9.67435 20.0499 9.19305 20.3948 9.06909C20.5887 8.99993 20.68 8.99993 20.8254 9.06909C21.1447 9.21323 21.3386 9.63689 21.4583 10.4525C21.5296 10.9166 21.5268 12.5248 21.4583 13.3664C21.3614 14.5308 21.2188 15.6865 20.9964 17.1593C20.9252 17.6204 20.8681 18.0211 20.8681 18.0499C20.8681 18.1709 21.6351 17.0556 22.0229 16.3696C23.0151 14.6086 23.7051 12.5363 23.936 10.614C23.9959 10.098 24.0215 8.97975 23.9788 8.49554C23.7478 5.77769 22.4591 3.97058 20.1411 3.11457C19.6735 2.94165 19.454 2.89553 19.0576 2.89841C18.6499 2.89841 18.2936 2.98199 17.9485 3.15204C17.8288 3.20968 17.7262 3.25292 17.7204 3.24715C17.7176 3.24139 17.6634 3.1434 17.6036 3.03387C17.0048 1.93577 15.9613 0.929902 14.798 0.327531C14.319 0.0796653 14.0738 0.016258 13.5406 0.0047294C13.1386 -0.00679922 13.073 -0.0010349 12.8278 0.0652548Z"
        fill="currentColor" />
    <path
        d="M5.79971 2.24417C5.07553 2.30181 4.52523 2.49203 3.90653 2.90418C3.49027 3.18087 3.26787 3.36821 2.83449 3.80918C1.25779 5.40877 0.239925 7.93931 0.0232362 10.7955C-0.0252337 11.4267 0.00612919 12.8015 0.0802597 13.3664C0.311204 15.0871 0.850076 16.5224 1.67691 17.6176C1.95918 17.9951 2.80883 18.805 2.863 18.7503C2.87156 18.7445 2.86585 18.4332 2.84875 18.0614C2.81168 17.1766 2.81168 15.3291 2.84875 14.5481C2.99986 11.3114 3.51876 9.41498 4.25154 9.41785C4.51955 9.41785 4.96148 9.87322 5.22092 10.4122C5.25512 10.4843 5.29506 10.5419 5.30931 10.5419C5.32355 10.5419 5.58871 10.4699 5.89666 10.3805C6.4954 10.2076 7.41063 9.98565 7.96947 9.879L8.31444 9.81271L8.33154 9.10371C8.38002 7.30813 8.7307 5.40589 9.23824 4.21556L9.34943 3.95906L9.27815 3.8063C8.95024 3.07711 8.02076 2.47474 6.95443 2.29893C6.5467 2.23264 6.17035 2.21247 5.79971 2.24417Z"
        fill="currentColor" />
    <path
        d="M20.1069 18.1796C19.8417 18.2372 19.5623 18.4476 19.4483 18.6782C19.2059 19.1711 19.3856 19.7273 19.876 19.9867C20.0128 20.0616 20.0527 20.0674 20.3264 20.0674C20.5802 20.0674 20.6458 20.0559 20.757 20.0011C20.9708 19.8945 21.1133 19.7504 21.216 19.54C21.2987 19.3699 21.3101 19.3209 21.3101 19.1163C21.3072 18.8367 21.2445 18.6782 21.0563 18.4736C20.8282 18.2286 20.4405 18.1076 20.1069 18.1796Z"
        fill="currentColor" />
    <path
        d="M2.86871 18.782C2.6007 18.8713 2.40397 19.0471 2.28422 19.3036C2.22434 19.4333 2.21009 19.5054 2.20723 19.6928C2.20723 19.8974 2.21864 19.9464 2.30132 20.1164C2.40682 20.3355 2.53512 20.4623 2.76322 20.5689C2.89722 20.6323 2.95994 20.6439 3.19089 20.6439C3.42184 20.6439 3.48456 20.6323 3.61856 20.5689C4.35988 20.2173 4.35417 19.1711 3.61 18.8281C3.38762 18.7243 3.09395 18.707 2.86871 18.782Z"
        fill="currentColor" />
</svg>